<svg width="54" height="54" viewBox="0 0 54 54" fill="none" xmlns="http://www.w3.org/2000/svg">
<g clip-path="url(#clip0_253_683)">
<path d="M50.1125 2.55198C51.7066 4.12362 52.6882 6.30214 52.6882 8.7024C52.6882 13.5068 48.7579 17.4009 43.9088 17.4009H35.1294V9.68273C35.2393 1.81673 38.3451 0.295656 39.5269 0H43.9049C46.3274 0 48.5262 0.972552 50.1125 2.55198Z" fill="#02B5D1"/>
<path d="M35.1254 17.4009V27.9122C35.1254 31.7169 32.0118 34.8018 28.1718 34.8018H17.5627V17.4009H35.1254Z" fill="black"/>
<path d="M35.1255 0V9.68273C35.2394 1.81673 38.349 0.291766 39.527 0H35.1255Z" fill="#1672F7"/>
<path d="M35.1176 0H24.5125C20.6725 0 17.5588 3.08494 17.5588 6.88956V17.4009H35.1215V9.68273C35.1137 9.83445 35.1137 9.99006 35.1137 10.1496V0H35.1176Z" fill="#1672F7"/>
<path d="M17.5627 17.4009V34.8018H8.78331C6.36074 34.8018 4.16196 33.8292 2.57571 32.2498C0.981595 30.6782 0 28.4996 0 26.0994C0 21.295 3.93031 17.4009 8.77939 17.4009H17.5588H17.5627Z" fill="#02B5D1"/>
<path d="M25.7374 54C30.5861 54 34.5168 50.1056 34.5168 45.3015C34.5168 40.4975 30.5861 36.603 25.7374 36.603C20.8887 36.603 16.958 40.4975 16.958 45.3015C16.958 50.1056 20.8887 54 25.7374 54Z" fill="#1672F7"/>
</g>
<defs>
<clipPath id="clip0_253_683">
<rect width="112" height="54" fill="black"/>
</clipPath>
</defs>
</svg>
