<svg width="627" height="754" viewBox="0 0 627 754" fill="none" xmlns="http://www.w3.org/2000/svg">
<g clip-path="url(#clip0_69_788)">
<path d="M627 184.211C627 82.4761 544.656 0 443.084 0C341.512 0 259.167 82.4761 259.167 184.211C259.167 285.945 341.512 368.421 443.084 368.421C544.656 368.421 627 285.945 627 184.211ZM340.425 184.211C340.425 127.418 386.381 81.3877 443.084 81.3877C499.786 81.3877 545.742 127.418 545.742 184.211C545.742 241.004 499.786 287.034 443.084 287.034C386.381 287.034 340.425 241.004 340.425 184.211Z" fill="url(#paint0_linear_69_788)"/>
<path d="M310.3 699.036C379.665 769.872 493.96 772.593 566.6 705.113C629.098 647.05 642.108 556.003 604.407 484.26C592.167 460.95 560.986 455.931 541.969 474.101L540.505 475.492C527.601 487.812 524.749 507.101 532.899 522.973C553.892 563.848 545.622 615.638 508.826 647.685C469.103 682.272 408.763 680.851 370.715 644.405C335.475 610.665 329.664 558.527 352.574 518.695C361.464 503.231 359.517 483.821 347.216 470.897L346.341 469.975C327.943 450.64 296.038 454.178 282.606 477.261C241.977 547.054 250.806 638.252 310.3 699.021V699.036Z" fill="url(#paint1_linear_69_788)"/>
<path d="M183.916 259.582C82.3443 259.582 0 342.058 0 443.793H81.2577C81.2577 387.015 127.214 340.97 183.916 340.97C240.619 340.97 286.575 387.015 286.575 443.793C286.575 500.571 240.604 546.631 183.916 546.631V628.003C285.488 628.003 367.833 545.542 367.833 443.793C367.833 342.043 285.488 259.582 183.916 259.582Z" fill="url(#paint2_linear_69_788)"/>
<path d="M183.916 546.631V628.003C170.575 628.003 157.55 626.582 145.023 623.861C76.3073 609.062 21.8538 555.791 5.25217 487.646C1.81109 473.587 0 458.909 0 443.792H81.2577C81.2577 500.585 127.214 546.631 183.916 546.631Z" fill="#1672F6"/>
<path d="M259.167 184.211C259.167 285.945 341.512 368.421 443.084 368.421V287.034C386.396 287.034 340.425 241.004 340.425 184.211C340.425 127.433 386.396 81.3877 443.084 81.3877C499.771 81.3877 545.757 127.433 545.757 184.211H627C627 82.4761 544.671 0 443.084 0C341.512 0 259.167 82.4761 259.167 184.211Z" fill="url(#paint3_linear_69_788)"/>
<path d="M545.757 184.21H627C627 197.574 625.581 210.619 622.865 223.166C608.089 291.992 554.903 346.532 486.867 363.161C472.831 366.607 458.176 368.421 443.084 368.421V287.033C499.786 287.033 545.757 241.003 545.757 184.21Z" fill="#1672F6"/>
<path d="M569.92 463.414H567.807C545.961 463.414 528.25 481.153 528.25 503.035V505.151C528.25 527.033 545.961 544.772 567.807 544.772H569.92C591.767 544.772 609.478 527.033 609.478 505.151V503.035C609.478 481.153 591.767 463.414 569.92 463.414Z" fill="#1672F6"/>
</g>
<defs>
<linearGradient id="paint0_linear_69_788" x1="259.167" y1="184.211" x2="627" y2="184.211" gradientUnits="userSpaceOnUse">
<stop stop-color="#CDF1F3"/>
<stop offset="1" stop-color="#1672F7"/>
</linearGradient>
<linearGradient id="paint1_linear_69_788" x1="255.598" y1="565.261" x2="617.822" y2="629.551" gradientUnits="userSpaceOnUse">
<stop stop-color="#CDF1F3"/>
<stop offset="1" stop-color="#1672F7"/>
</linearGradient>
<linearGradient id="paint2_linear_69_788" x1="183.916" y1="628.003" x2="183.916" y2="259.582" gradientUnits="userSpaceOnUse">
<stop stop-color="#CDF1F3"/>
<stop offset="1" stop-color="#1672F7"/>
</linearGradient>
<linearGradient id="paint3_linear_69_788" x1="627" y1="184.211" x2="259.167" y2="184.211" gradientUnits="userSpaceOnUse">
<stop stop-color="#CDF1F3"/>
<stop offset="1" stop-color="#1672F7"/>
</linearGradient>
<clipPath id="clip0_69_788">
<rect width="627" height="754" fill="white"/>
</clipPath>
</defs>
</svg>
