<svg width="43" height="43" viewBox="0 0 43 43" fill="none" xmlns="http://www.w3.org/2000/svg">
<path fill-rule="evenodd" clip-rule="evenodd" d="M0 21.5C0 9.62588 9.62588 0 21.5 0C33.3741 0 43 9.62588 43 21.5C43 33.3741 33.3741 43 21.5 43C9.62588 43 0 33.3741 0 21.5ZM11.0187 17.8719V32.25H15.5875V17.8719H11.0187ZM10.75 13.3031C10.75 14.7812 11.825 15.8563 13.3031 15.8563C14.7812 15.8563 15.8563 14.7812 15.8563 13.3031C15.8563 11.825 14.7812 10.75 13.3031 10.75C11.9594 10.75 10.75 11.825 10.75 13.3031ZM27.6813 32.25H31.9813V23.3813C31.9813 18.9469 29.2937 17.4688 26.7406 17.4688C24.4562 17.4688 22.8438 18.9469 22.4406 19.8875V17.8719H18.1406V32.25H22.7094V24.5906C22.7094 22.575 24.0531 21.5 25.3969 21.5C26.7406 21.5 27.6813 22.1719 27.6813 24.4562V32.25Z" fill="#1672F6"/>
</svg>
