<svg width="112" height="54" viewBox="0 0 112 54" fill="none" xmlns="http://www.w3.org/2000/svg">
<g clip-path="url(#clip0_253_683)">
<path d="M55.4995 4.91336V1.72339H68.2995V4.91336H63.8706V16.3117H59.9285V4.91336H55.4995Z" fill="black"/>
<path d="M69.7954 16.3117V1.72339H73.7925V7.42255H79.0852V1.72339H83.0823V16.3156H79.0852V10.6164H73.7925V16.3156H69.7954V16.3117Z" fill="black"/>
<path d="M84.9827 16.3117V1.72339H95.5957V4.91336H88.9797V7.42255H95.0499V10.6125H88.9797V13.1217H95.5682V16.3156H84.9827V16.3117Z" fill="black"/>
<path d="M40.5437 34.7435V20.4275H50.7052V23.5591H44.4662V26.0216H50.0809V29.1532H44.4662V34.7474H40.5437V34.7435Z" fill="black"/>
<path d="M56.0648 20.4275V34.7435H52.1423V20.4275H56.0648Z" fill="black"/>
<path d="M65.7156 24.9011C65.6764 24.4343 65.5036 24.0725 65.1895 23.8119C64.8754 23.5512 64.4042 23.419 63.7682 23.419C63.1321 23.419 62.7198 23.5201 62.441 23.7263C62.1623 23.9325 62.0209 24.1931 62.017 24.5082C61.9974 24.8467 62.1466 25.1268 62.4646 25.3407C62.7826 25.5547 63.2813 25.7336 63.9645 25.8776L65.1502 26.1305C66.7443 26.4728 67.8948 27.0135 68.6015 27.7643C69.3083 28.5113 69.6616 29.4332 69.6656 30.5225C69.6616 31.9346 69.1394 33.02 68.099 33.7747C67.0585 34.5333 65.6253 34.9107 63.7956 34.9107C62.5392 34.9107 61.4437 34.7278 60.5132 34.3582C59.5787 33.9887 58.8563 33.4246 58.338 32.6543C57.8236 31.888 57.5645 30.9037 57.5605 29.7094H61.2867C61.3181 30.3669 61.5497 30.8648 61.9738 31.2072C62.3978 31.5495 62.9868 31.7207 63.7407 31.7207C64.3689 31.7207 64.8479 31.6079 65.1699 31.3861C65.4918 31.1644 65.6567 30.8726 65.6607 30.5186C65.6567 30.1918 65.4918 29.9195 65.1738 29.7056C64.8558 29.4877 64.2904 29.2932 63.4894 29.122L62.0484 28.8147C60.7684 28.5385 59.7632 28.0794 59.0251 27.4337C58.2869 26.7879 57.9218 25.9048 57.9296 24.7883C57.9257 23.878 58.1691 23.0844 58.6678 22.3997C59.1625 21.7151 59.8536 21.186 60.737 20.8009C61.6204 20.4196 62.6295 20.229 63.776 20.229C64.9225 20.229 65.9512 20.4235 66.8032 20.8086C67.6553 21.1977 68.311 21.7384 68.7743 22.4425C69.2376 23.1428 69.4732 23.9636 69.4771 24.9011H65.7235H65.7156Z" fill="black"/>
<path d="M84.6527 25.7959H80.6714C80.6164 25.1424 80.3769 24.6172 79.9567 24.2165C79.5366 23.8158 78.9477 23.6174 78.1899 23.6174C77.2004 23.6174 76.4466 23.9675 75.9244 24.6678C75.4021 25.368 75.143 26.3406 75.143 27.5854C75.143 28.9003 75.4061 29.8884 75.9361 30.5575C76.4662 31.2228 77.2083 31.5573 78.1624 31.5573C78.8809 31.5573 79.4542 31.3784 79.8821 31.0244C80.3101 30.6665 80.5732 30.1841 80.6714 29.5733L84.6527 29.6005C84.6056 30.2074 84.4328 30.8221 84.1383 31.4484C83.8439 32.0747 83.4237 32.6544 82.878 33.1834C82.3361 33.7125 81.6647 34.1365 80.8637 34.4594C80.0628 34.7823 79.1361 34.9418 78.076 34.9418C76.7489 34.9418 75.5592 34.6617 74.5109 34.0976C73.4586 33.5336 72.6301 32.7049 72.0215 31.6079C71.4129 30.5109 71.1067 29.1726 71.1067 27.5893C71.1067 26.006 71.4169 24.6522 72.0372 23.5591C72.6576 22.4659 73.4939 21.6373 74.5501 21.0771C75.6024 20.5169 76.7803 20.2368 78.076 20.2368C79.2893 20.2368 80.3729 20.4547 81.3271 20.8865C82.2812 21.3183 83.0468 21.9524 83.6279 22.781C84.209 23.6096 84.5506 24.6172 84.6527 25.7998V25.7959Z" fill="black"/>
<path d="M90.185 34.7435H85.9524L90.7229 20.4275H96.0864L100.857 34.7435H96.6243L95.7919 32.0048H91.0214L90.189 34.7435H90.185ZM91.9048 29.0949H94.8967L93.4557 24.3683H93.3418L91.9009 29.0949H91.9048Z" fill="black"/>
<path d="M102.235 34.7435V20.4275H106.158V31.6118H112V34.7435H102.235Z" fill="black"/>
<path d="M46.186 43.2205C46.1507 42.7731 45.9818 42.423 45.6795 42.1701C45.3772 41.9173 44.9217 41.7928 44.3131 41.7928C43.7045 41.7928 43.304 41.89 43.037 42.0884C42.77 42.2868 42.6326 42.5358 42.6287 42.8431C42.6091 43.1699 42.7543 43.4383 43.0606 43.6445C43.3669 43.8507 43.8459 44.0219 44.5016 44.1619L45.6442 44.4031C47.1794 44.7299 48.2866 45.2551 48.9659 45.9748C49.6451 46.6944 49.9867 47.5775 49.9907 48.6279C49.9867 49.9856 49.4842 51.032 48.4829 51.7595C47.4817 52.487 46.1035 52.8526 44.3406 52.8526C43.1313 52.8526 42.079 52.6737 41.1799 52.3197C40.2807 51.9657 39.5857 51.421 39.0871 50.6819C38.5924 49.9428 38.3411 48.9974 38.3372 47.8459H41.9219C41.9534 48.48 42.1732 48.9585 42.5855 49.2892C42.9938 49.6199 43.5632 49.7833 44.2856 49.7833C44.8942 49.7833 45.3497 49.6743 45.6599 49.4604C45.97 49.2464 46.1271 48.9663 46.131 48.6279C46.1271 48.3128 45.97 48.0521 45.6638 47.8421C45.3575 47.632 44.8157 47.4453 44.0422 47.2819L42.6562 46.9862C41.4233 46.7217 40.4535 46.2782 39.7467 45.6596C39.04 45.0372 38.6866 44.1891 38.6905 43.1116C38.6866 42.2363 38.9222 41.4699 39.4012 40.8163C39.8802 40.1589 40.5399 39.6454 41.3919 39.2797C42.24 38.914 43.2137 38.7273 44.3131 38.7273C45.4125 38.7273 46.4059 38.914 47.2265 39.2836C48.0471 39.6571 48.6792 40.1783 49.1229 40.8552C49.5705 41.5321 49.7943 42.318 49.7983 43.2205H46.186Z" fill="black"/>
<path d="M51.4277 52.693V38.9177H57.4312C58.4638 38.9177 59.3669 39.12 60.1404 39.5246C60.9139 39.9292 61.5146 40.4971 61.9465 41.2246C62.3784 41.956 62.5904 42.8118 62.5904 43.7883C62.5904 44.7647 62.3706 45.6283 61.9269 46.3519C61.4871 47.0755 60.8668 47.6318 60.0736 48.0208C59.2805 48.4098 58.3539 48.6043 57.2937 48.6043H55.201V52.693H51.4277ZM55.201 45.6945H56.532C57.1917 45.6945 57.7099 45.5233 58.0869 45.181C58.4638 44.8386 58.6483 44.3718 58.6483 43.7844C58.6483 43.197 58.4599 42.7301 58.0869 42.3995C57.7099 42.0688 57.1917 41.9015 56.532 41.9015H55.201V45.6945Z" fill="black"/>
<path d="M65.8493 52.693H61.7737L66.3636 38.9177H71.5229L76.1128 52.693H72.0412L71.2402 50.0554H66.6502L65.8493 52.693ZM67.5023 47.2544H70.3803L68.9943 42.7068H68.8844L67.4983 47.2544H67.5023Z" fill="black"/>
<path d="M89.7726 44.08H85.9444C85.8894 43.4536 85.6617 42.944 85.2534 42.5589C84.8489 42.1738 84.2796 41.9793 83.5532 41.9793C82.6031 41.9793 81.8767 42.3177 81.3741 42.9907C80.8715 43.6676 80.6202 44.6013 80.6202 45.7994C80.6202 47.0638 80.8754 48.0169 81.3859 48.6587C81.8963 49.3006 82.6109 49.6196 83.5297 49.6196C84.2207 49.6196 84.7743 49.4485 85.1866 49.1061C85.5989 48.7638 85.8541 48.2969 85.9483 47.7095L89.7765 47.7368C89.7294 48.3203 89.5645 48.9116 89.2818 49.5146C88.9952 50.1176 88.5908 50.6739 88.0686 51.1835C87.5464 51.6931 86.8985 52.1016 86.1289 52.4128C85.3594 52.724 84.4642 52.8757 83.4472 52.8757C82.1712 52.8757 81.0286 52.6034 80.0156 52.0627C79.0026 51.5219 78.2055 50.7205 77.6205 49.6663C77.0354 48.6121 76.741 47.3244 76.741 45.7994C76.741 44.2745 77.0394 42.9713 77.6362 41.9209C78.233 40.8705 79.0379 40.073 80.0548 39.5323C81.0678 38.9916 82.1986 38.7231 83.4511 38.7231C84.6173 38.7231 85.6617 38.9332 86.5766 39.3495C87.4953 39.7657 88.2296 40.3726 88.791 41.174C89.3486 41.9715 89.6784 42.9401 89.7805 44.08H89.7726Z" fill="black"/>
<path d="M91.4846 52.693V38.9177H101.505V41.9326H95.2579V44.3018H100.986V47.3167H95.2579V49.6858H101.477V52.7007H91.4846V52.693Z" fill="black"/>
<path d="M50.1125 2.55198C51.7066 4.12362 52.6882 6.30214 52.6882 8.7024C52.6882 13.5068 48.7579 17.4009 43.9088 17.4009H35.1294V9.68273C35.2393 1.81673 38.3451 0.295656 39.5269 0H43.9049C46.3274 0 48.5262 0.972552 50.1125 2.55198Z" fill="#02B5D1"/>
<path d="M35.1254 17.4009V27.9122C35.1254 31.7169 32.0118 34.8018 28.1718 34.8018H17.5627V17.4009H35.1254Z" fill="black"/>
<path d="M35.1255 0V9.68273C35.2394 1.81673 38.349 0.291766 39.527 0H35.1255Z" fill="#1672F7"/>
<path d="M35.1176 0H24.5125C20.6725 0 17.5588 3.08494 17.5588 6.88956V17.4009H35.1215V9.68273C35.1137 9.83445 35.1137 9.99006 35.1137 10.1496V0H35.1176Z" fill="#1672F7"/>
<path d="M17.5627 17.4009V34.8018H8.78331C6.36074 34.8018 4.16196 33.8292 2.57571 32.2498C0.981595 30.6782 0 28.4996 0 26.0994C0 21.295 3.93031 17.4009 8.77939 17.4009H17.5588H17.5627Z" fill="#02B5D1"/>
<path d="M25.7374 54C30.5861 54 34.5168 50.1056 34.5168 45.3015C34.5168 40.4975 30.5861 36.603 25.7374 36.603C20.8887 36.603 16.958 40.4975 16.958 45.3015C16.958 50.1056 20.8887 54 25.7374 54Z" fill="#1672F7"/>
</g>
<defs>
<clipPath id="clip0_253_683">
<rect width="112" height="54" fill="black"/>
</clipPath>
</defs>
</svg>
