<svg width="666" height="641" viewBox="0 0 666 641" fill="none" xmlns="http://www.w3.org/2000/svg">
<g clip-path="url(#clip0_253_639)">
<path d="M82.9422 41.4566C82.9422 18.5607 64.375 0 41.4711 0C18.5673 0 0 18.5607 0 41.4566C0 64.3524 18.5673 82.9131 41.4711 82.9131C64.375 82.9131 82.9422 64.3524 82.9422 41.4566Z" fill="#CCF0F2"/>
<path d="M199.559 41.4566C199.559 18.5607 180.992 0 158.088 0C135.184 0 116.617 18.5607 116.617 41.4566C116.617 64.3524 135.184 82.9131 158.088 82.9131C180.992 82.9131 199.559 64.3524 199.559 41.4566Z" fill="#CCF0F2"/>
<path d="M316.176 41.4566C316.176 18.5607 297.608 0 274.705 0C251.801 0 233.233 18.5607 233.233 41.4566C233.233 64.3524 251.801 82.9131 274.705 82.9131C297.608 82.9131 316.176 64.3524 316.176 41.4566Z" fill="#CCF0F2"/>
<path d="M432.792 41.4566C432.792 18.5607 414.225 0 391.321 0C368.417 0 349.85 18.5607 349.85 41.4566C349.85 64.3524 368.417 82.9131 391.321 82.9131C414.225 82.9131 432.792 64.3524 432.792 41.4566Z" fill="#CCF0F2"/>
<path d="M549.409 41.4566C549.409 18.5607 530.842 0 507.938 0C485.034 0 466.467 18.5607 466.467 41.4566C466.467 64.3524 485.034 82.9131 507.938 82.9131C530.842 82.9131 549.409 64.3524 549.409 41.4566Z" fill="#CCF0F2"/>
<path d="M666 41.4566C666 18.5607 647.433 0 624.529 0C601.625 0 583.058 18.5607 583.058 41.4566C583.058 64.3524 601.625 82.9131 624.529 82.9131C647.433 82.9131 666 64.3524 666 41.4566Z" fill="#CCF0F2"/>
<path d="M82.9422 153.084C82.9422 130.188 64.375 111.627 41.4711 111.627C18.5673 111.627 0 130.188 0 153.084C0 175.98 18.5673 194.541 41.4711 194.541C64.375 194.541 82.9422 175.98 82.9422 153.084Z" fill="#CCF0F2"/>
<path d="M316.176 153.084C316.176 130.188 297.608 111.627 274.705 111.627C251.801 111.627 233.233 130.188 233.233 153.084C233.233 175.98 251.801 194.541 274.705 194.541C297.608 194.541 316.176 175.98 316.176 153.084Z" fill="#CCF0F2"/>
<path d="M432.792 153.084C432.792 130.188 414.225 111.627 391.321 111.627C368.417 111.627 349.85 130.188 349.85 153.084C349.85 175.98 368.417 194.541 391.321 194.541C414.225 194.541 432.792 175.98 432.792 153.084Z" fill="#CCF0F2"/>
<path d="M549.409 153.084C549.409 130.188 530.842 111.627 507.938 111.627C485.034 111.627 466.467 130.188 466.467 153.084C466.467 175.98 485.034 194.541 507.938 194.541C530.842 194.541 549.409 175.98 549.409 153.084Z" fill="#CCF0F2"/>
<path d="M666 153.084C666 130.188 647.433 111.627 624.529 111.627C601.625 111.627 583.058 130.188 583.058 153.084C583.058 175.98 601.625 194.541 624.529 194.541C647.433 194.541 666 175.98 666 153.084Z" fill="#CCF0F2"/>
<path d="M82.9422 264.686C82.9422 241.79 64.375 223.229 41.4711 223.229C18.5673 223.229 0 241.79 0 264.686C0 287.582 18.5673 306.143 41.4711 306.143C64.375 306.143 82.9422 287.582 82.9422 264.686Z" fill="#CCF0F2"/>
<path d="M432.792 264.686C432.792 241.79 414.225 223.229 391.321 223.229C368.417 223.229 349.85 241.79 349.85 264.686C349.85 287.582 368.417 306.143 391.321 306.143C414.225 306.143 432.792 287.582 432.792 264.686Z" fill="#CCF0F2"/>
<path d="M666 153.7C666 130.804 647.433 112.243 624.529 112.243C601.625 112.243 583.058 130.804 583.058 153.7V599.544C583.058 622.439 601.625 641 624.529 641C647.433 641 666 622.439 666 599.544V153.7Z" fill="url(#paint0_linear_253_639)"/>
<path d="M432.792 264.686C432.792 241.79 414.225 223.229 391.321 223.229C368.417 223.229 349.85 241.79 349.85 264.686V599.543C349.85 622.439 368.417 641 391.321 641C414.225 641 432.792 622.439 432.792 599.543V264.686Z" fill="url(#paint1_linear_253_639)"/>
<path d="M199.559 41.4566C199.559 18.5607 180.992 0 158.088 0C135.184 0 116.617 18.5607 116.617 41.4566V599.543C116.617 622.439 135.184 641 158.088 641C180.992 641 199.559 622.439 199.559 599.543V41.4566Z" fill="url(#paint2_linear_253_639)"/>
<path d="M316.176 153.7C316.176 130.804 297.608 112.243 274.705 112.243C251.801 112.243 233.233 130.804 233.233 153.7V599.544C233.233 622.439 251.801 641 274.705 641C297.608 641 316.176 622.439 316.176 599.544V153.7Z" fill="url(#paint3_linear_253_639)"/>
<path d="M549.409 264.686C549.409 241.79 530.842 223.229 507.938 223.229C485.034 223.229 466.467 241.79 466.467 264.686C466.467 287.582 485.034 306.143 507.938 306.143C530.842 306.143 549.409 287.582 549.409 264.686Z" fill="#CCF0F2"/>
<path d="M82.9422 264.686C82.9422 241.79 64.375 223.229 41.4711 223.229C18.5673 223.229 0 241.79 0 264.686V599.543C0 622.439 18.5673 641 41.4711 641C64.375 641 82.9422 622.439 82.9422 599.543V264.686Z" fill="url(#paint4_linear_253_639)"/>
<path d="M549.409 376.314C549.409 353.418 530.842 334.857 507.938 334.857C485.034 334.857 466.467 353.418 466.467 376.314C466.467 399.21 485.034 417.771 507.938 417.771C530.842 417.771 549.409 399.21 549.409 376.314Z" fill="#CCF0F2"/>
<path d="M549.409 376.314C549.409 353.418 530.842 334.857 507.938 334.857C485.034 334.857 466.467 353.418 466.467 376.314V599.544C466.467 622.439 485.034 641 507.938 641C530.842 641 549.409 622.439 549.409 599.544V376.314Z" fill="url(#paint5_linear_253_639)"/>
<path d="M82.9422 599.544C82.9422 576.648 64.375 558.087 41.4711 558.087C18.5673 558.087 0 576.648 0 599.544C0 622.439 18.5673 641 41.4711 641C64.375 641 82.9422 622.439 82.9422 599.544Z" fill="#1672F6"/>
<path d="M199.559 599.544C199.559 576.648 180.992 558.087 158.088 558.087C135.184 558.087 116.617 576.648 116.617 599.544C116.617 622.439 135.184 641 158.088 641C180.992 641 199.559 622.439 199.559 599.544Z" fill="#02B4D0"/>
<path d="M316.176 599.544C316.176 576.648 297.608 558.087 274.705 558.087C251.801 558.087 233.233 576.648 233.233 599.544C233.233 622.439 251.801 641 274.705 641C297.608 641 316.176 622.439 316.176 599.544Z" fill="#1672F6"/>
<path d="M432.792 599.544C432.792 576.648 414.225 558.087 391.321 558.087C368.417 558.087 349.85 576.648 349.85 599.544C349.85 622.439 368.417 641 391.321 641C414.225 641 432.792 622.439 432.792 599.544Z" fill="#02B4D0"/>
<path d="M549.409 599.544C549.409 576.648 530.842 558.087 507.938 558.087C485.034 558.087 466.467 576.648 466.467 599.544C466.467 622.439 485.034 641 507.938 641C530.842 641 549.409 622.439 549.409 599.544Z" fill="#1672F6"/>
<path d="M666 599.544C666 576.648 647.433 558.087 624.529 558.087C601.625 558.087 583.058 576.648 583.058 599.544C583.058 622.439 601.625 641 624.529 641C647.433 641 666 622.439 666 599.544Z" fill="#02B4D0"/>
</g>
<defs>
<linearGradient id="paint0_linear_253_639" x1="624.529" y1="641" x2="624.529" y2="112.243" gradientUnits="userSpaceOnUse">
<stop stop-color="#CDF1F3"/>
<stop offset="1" stop-color="#02B5D1"/>
</linearGradient>
<linearGradient id="paint1_linear_253_639" x1="391.321" y1="641" x2="391.321" y2="223.229" gradientUnits="userSpaceOnUse">
<stop stop-color="#CDF1F3"/>
<stop offset="1" stop-color="#02B5D1"/>
</linearGradient>
<linearGradient id="paint2_linear_253_639" x1="158.088" y1="641" x2="158.088" y2="0" gradientUnits="userSpaceOnUse">
<stop stop-color="#CDF1F3"/>
<stop offset="1" stop-color="#02B5D1"/>
</linearGradient>
<linearGradient id="paint3_linear_253_639" x1="274.705" y1="641" x2="274.705" y2="112.243" gradientUnits="userSpaceOnUse">
<stop stop-color="#CDF1F3"/>
<stop offset="1" stop-color="#1672F7"/>
</linearGradient>
<linearGradient id="paint4_linear_253_639" x1="41.4711" y1="641" x2="41.4711" y2="223.229" gradientUnits="userSpaceOnUse">
<stop stop-color="#CDF1F3"/>
<stop offset="1" stop-color="#1672F7"/>
</linearGradient>
<linearGradient id="paint5_linear_253_639" x1="507.938" y1="641" x2="507.938" y2="334.857" gradientUnits="userSpaceOnUse">
<stop stop-color="#CDF1F3"/>
<stop offset="1" stop-color="#1672F7"/>
</linearGradient>
<clipPath id="clip0_253_639">
<rect width="666" height="641" fill="white"/>
</clipPath>
</defs>
</svg>
